<svg width="62" height="19" fill="none" xmlns="http://www.w3.org/2000/svg">
    <path d="M5.52 0C6.58.02 7.5.26 8.3.74c.79.47 1.4 1.1 1.8 1.9a5.5 5.5 0 0 1 .24 4.78 5.74 5.74 0 0 1-1.1 1.73c.67.5 1.2 1.14 1.58 1.9.4.75.6 1.58.6 2.48a5.2 5.2 0 0 1-.72 2.67 5.05 5.05 0 0 1-4.53 2.66H0V0h5.52ZM2.5 2.55v5.6h3.03a2.6 2.6 0 0 0 1.96-.82c.52-.54.79-1.21.79-2 0-.8-.27-1.46-.8-1.99a2.6 2.6 0 0 0-1.95-.8H2.5Zm0 8.15v5.61h3.68c.78 0 1.43-.26 1.96-.8s.79-1.2.79-1.97c0-.8-.26-1.47-.8-2.02a2.6 2.6 0 0 0-1.95-.82H2.5ZM20.85 19c-.97 0-1.88-.19-2.75-.57a7.37 7.37 0 0 1-3.85-3.85 7.08 7.08 0 0 1 0-5.55 7.28 7.28 0 0 1 3.85-3.85 7.09 7.09 0 0 1 5.55 0 6.9 6.9 0 0 1 3.85 3.85 7.08 7.08 0 0 1 0 5.55 6.98 6.98 0 0 1-3.85 3.85c-.89.38-1.82.57-2.8.57Zm0-11.86c-1.27 0-2.36.45-3.26 1.35a4.72 4.72 0 0 0-1.02 5.13 4.8 4.8 0 0 0 4.28 2.89 4.64 4.64 0 0 0 4.3-2.89 4.64 4.64 0 0 0 0-3.6 4.97 4.97 0 0 0-1-1.53 4.09 4.09 0 0 0-1.5-.99 4.5 4.5 0 0 0-1.8-.36ZM36.94 19c-.96 0-1.88-.19-2.75-.57a7.37 7.37 0 0 1-3.85-3.85 7.08 7.08 0 0 1 0-5.55 7.28 7.28 0 0 1 3.85-3.85 7.09 7.09 0 0 1 5.55 0 6.9 6.9 0 0 1 3.85 3.85 7.09 7.09 0 0 1 0 5.55 6.98 6.98 0 0 1-3.85 3.85c-.89.38-1.82.57-2.8.57Zm0-11.86c-1.27 0-2.35.45-3.26 1.35a4.72 4.72 0 0 0-1.02 5.13 4.8 4.8 0 0 0 4.28 2.89 4.64 4.64 0 0 0 4.3-2.89 4.64 4.64 0 0 0 0-3.6 4.97 4.97 0 0 0-.99-1.53 4.09 4.09 0 0 0-1.5-.99 4.5 4.5 0 0 0-1.81-.36ZM53.5 18.86l-4.3-5.24v5.24h-2.5V.03h2.5v8.12l3.85-3.62h3.7l-6.7 6.23 6.74 8.1H53.5ZM59.79 2.66c-.36 0-.67-.12-.94-.37a1.33 1.33 0 0 1-.37-.93c0-.36.13-.66.37-.9.27-.27.58-.4.94-.4s.66.13.9.4c.27.24.4.54.4.9s-.13.67-.4.93c-.24.25-.54.37-.9.37Zm-1.16 16.2V4.7H61v14.16h-2.37Z"
          fill="#0065FC"/>
    <path d="M38.43 10.01a1.45 1.45 0 1 1-2.9 0 1.45 1.45 0 0 1 2.9 0Z" fill="#0065FC"/>
    <path d="m35.54 14.68.7-5.15h1.6l.6 5.15h-2.9Z" fill="#0065FC"/>
</svg>