<svg width="23" height="22" fill="none" xmlns="http://www.w3.org/2000/svg">
    <path d="M13.24 2.06c0 1.14-.9 2.06-2.01 2.06A2.04 2.04 0 0 1 9.2 2.06C9.2.92 10.1 0 11.23 0c1.1 0 2.01.92 2.01 2.06ZM10.9 15.12v5.5c0 .77-.6 1.38-1.34 1.38-.75 0-1.35-.61-1.35-1.38v-9.58L7 13.08c-.38.65-1.2.86-1.84.47a1.4 1.4 0 0 1-.46-1.88L7.14 7.5c.73-1.24 2.04-2 3.46-2h1.25c1.42 0 2.73.76 3.46 2l2.45 4.17c.38.65.17 1.5-.46 1.88-.64.4-1.46.18-1.85-.47l-1.2-2.04v9.59c0 .76-.6 1.37-1.34 1.37-.75 0-1.35-.61-1.35-1.38v-5.5h-.67Z"
          fill="#0065FC"/>
</svg>