<svg width="23" height="22" fill="none" xmlns="http://www.w3.org/2000/svg">
    <path d="M9.4 1.21a.83.83 0 0 1 1.11 0 31.95 31.95 0 0 1 3.13 3.3c.44-.56.94-1.18 1.48-1.68a.83.83 0 0 1 1.13 0c1.39 1.3 2.56 3 3.4 4.63.8 1.6 1.35 3.23 1.35 4.39 0 5-4.01 9.23-9 9.23-5.05 0-9-4.23-9-9.24 0-1.5.72-3.34 1.82-5.16A25.21 25.21 0 0 1 9.4 1.2Zm2.67 16.1c1.01 0 1.91-.27 2.76-.82a4 4 0 0 0 1.13-5.27c-.18-.35-.64-.38-.9-.08l-1.01 1.15a.65.65 0 0 1-1-.02l-2.52-3.13a.64.64 0 0 0-1 0c-1.35 1.66-2.03 2.71-2.03 3.9 0 2.68 2.03 4.27 4.57 4.27Z"
          fill="#0065FC"/>
</svg>