<svg width="22" height="22" fill="none" xmlns="http://www.w3.org/2000/svg">
    <path d="M21.35 3.68a9.7 9.7 0 0 0-4-.81c-4.23 0-8.47 2.26-12.7 2.26a9.92 9.92 0 0 1-3.19-.5 1.12 1.12 0 0 0-.35-.05C.5 4.58 0 5.06 0 5.73v11.52c0 .45.25.89.65 1.06a9.7 9.7 0 0 0 4 .82c4.23 0 8.47-2.26 12.7-2.26 1.06 0 2.12.14 3.19.5a1.12 1.12 0 0 0 1.46-1.1V4.75c0-.45-.25-.89-.65-1.07ZM1.65 6.51c.7.18 1.41.27 2.16.32A2.24 2.24 0 0 1 1.65 8.7V6.5Zm0 10.34v-1.73c1.18 0 2.14.99 2.19 2.23a7.93 7.93 0 0 1-2.19-.5ZM11 14.48c-1.52 0-2.75-1.56-2.75-3.48S9.48 7.52 11 7.52s2.75 1.56 2.75 3.48-1.23 3.48-2.75 3.48Zm9.35 1.01c-.6-.16-1.23-.25-1.87-.3.2-.95.95-1.67 1.87-1.8v2.1Zm0-8.57a2.27 2.27 0 0 1-1.92-2.23c.67.08 1.31.22 1.92.46v1.77Z"
          fill="#0065FC"/>
</svg>